<svg width="100%" height="100%" viewBox="0 0 156 111" version="1.1" xmlns="http://www.w3.org/2000/svg" xmlns:xlink="http://www.w3.org/1999/xlink" xml:space="preserve" style="fill-rule:evenodd;clip-rule:evenodd;stroke-linejoin:round;stroke-miterlimit:1.41421;">
  <g id="Logo">
    <path d="M51.4554,50.5993c0,6.43217 -3.87906,11.6467 -8.66425,11.6467c-4.78519,0 -8.66425,-5.21451 -8.66425,-11.6467c0,-6.43217 3.87906,-11.6467 8.66425,-11.6467c4.78519,0 8.66425,5.21451 8.66425,11.6467" style="fill:#4c3e90;fill-rule:nonzero;"/>

    <path d="M73.8962,34.4065c0,5.96296 -3.87906,10.7956 -8.66425,10.7956c-4.78519,0 -8.66425,-4.83268 -8.66425,-10.7956c0,-5.96106 3.87906,-10.7956 8.66425,-10.7956c4.78519,0 8.66425,4.83458 8.66425,10.7956" style="fill:#7473b2;fill-rule:nonzero;"/>

    <path d="M91.2253,72.1896c0,5.96296 -3.87906,10.7956 -8.66425,10.7956c-4.78519,0 -8.66425,-4.83268 -8.66425,-10.7956c0,-5.96106 3.87906,-10.7956 8.66425,-10.7956c4.78519,0 8.66425,4.83458 8.66425,10.7956" style="fill:#7473b2;fill-rule:nonzero;"/>

    <path d="M106.566,32.9862c0,5.96106 -3.87906,10.7956 -8.66425,10.7956c-4.78519,0 -8.66425,-4.83458 -8.66425,-10.7956c0,-5.96296 3.87906,-10.7956 8.66425,-10.7956c4.78519,0 8.66425,4.83268 8.66425,10.7956" style="fill:#55b32b;fill-rule:nonzero;"/>

    <path d="M122.332,59.1218c0,5.96106 -3.87906,10.7956 -8.66425,10.7956c-4.78519,0 -8.66425,-4.83458 -8.66425,-10.7956c0,-5.96296 3.87906,-10.7956 8.66425,-10.7956c4.78519,0 8.66425,4.83268 8.66425,10.7956" style="fill:#55b32b;fill-rule:nonzero;"/>

    <path d="M138.241,15.3729c0,5.96106 -3.87906,10.7956 -8.66425,10.7956c-4.78519,0 -8.66425,-4.83458 -8.66425,-10.7956c0,-5.96296 3.87906,-10.7956 8.66425,-10.7956c4.78519,0 8.66425,4.83268 8.66425,10.7956" style="fill:#a0d532;fill-rule:nonzero;"/>

    <path d="M148.752,73.042c0,5.96106 -3.87906,10.7956 -8.66425,10.7956c-4.78519,0 -8.66425,-4.83458 -8.66425,-10.7956c0,-5.96296 3.87906,-10.7956 8.66425,-10.7956c4.78519,0 8.66425,4.83268 8.66425,10.7956" style="fill:#a0d532;fill-rule:nonzero;"/>

    <path d="M68.7845,62.2467c0,5.96106 -3.87906,10.7956 -8.66425,10.7956c-4.78519,0 -8.66425,-4.83458 -8.66425,-10.7956c0,-5.96106 3.87906,-10.7956 8.66425,-10.7956c4.78519,0 8.66425,4.83458 8.66425,10.7956" style="fill:#4c3e90;fill-rule:nonzero;"/>

    <path d="M23.0452,75.8827c0,5.96296 -3.87906,10.7956 -8.66425,10.7956c-4.78519,0 -8.66425,-4.83268 -8.66425,-10.7956c0,-5.96106 3.87906,-10.7956 8.66425,-10.7956c4.78519,0 8.66425,4.83458 8.66425,10.7956" style="fill:#2e2882;fill-rule:nonzero;"/>

    <path d="M37.1074,24.7476c0,5.96296 -3.87906,10.7956 -8.66425,10.7956c-4.78519,0 -8.66425,-4.83268 -8.66425,-10.7956c0,-5.96106 3.87906,-10.7956 8.66425,-10.7956c4.78519,0 8.66425,4.83458 8.66425,10.7956" style="fill:#2e2882;fill-rule:nonzero;"/>

    <path d="M24.8418,35.371c-0.0740859,0 -0.146272,-0.00189964 -0.220358,-0.00569891c-1.81036,-0.0778852 -4.2001,-1.18157 -5.30379,-5.99526c-0.982113,-4.28558 2.1048,-12.7637 6.2916,-14.9957c1.51211,-0.803547 3.84297,-1.20057 6.36189,1.48362c0.20896,0.222258 0.197562,0.573691 -0.0246953,0.782651c-0.224157,0.20896 -0.573691,0.197562 -0.782651,-0.0246953c-1.63749,-1.74577 -3.33197,-2.17129 -5.03404,-1.26516c-3.74989,1.99842 -6.61834,9.91421 -5.73311,13.7724c0.761755,3.31867 2.19978,5.04734 4.27229,5.13662c3.76698,0.189964 8.71744,-5.11003 10.2296,-9.60077l-1.27276,-6.36189c-0.0588888,-0.300143 0.134874,-0.592687 0.435017,-0.651576c0.298243,-0.0569891 0.590787,0.134874 0.651576,0.433117l1.32785,6.64683l-0.0436917,0.138674c-1.59,4.93146 -6.76271,10.505 -11.1547,10.5069" style="fill:#1a1a18;fill-rule:nonzero;"/>

    <path d="M13.2472,87.5958c-1.5558,0 -3.47254,-0.761755 -5.51465,-3.32817c-3.1686,-3.98544 -0.605985,-15.4422 3.31297,-18.8444c1.93193,-1.67928 4.05003,-1.49502 5.96106,0.5243c0.21086,0.220358 0.201362,0.571791 -0.020896,0.780751c-0.222258,0.20896 -0.571791,0.201362 -0.782651,-0.020896c-1.50261,-1.5862 -2.95204,-1.73247 -4.43186,-0.448315c-3.84107,3.33576 -5.7977,14.0174 -3.1724,17.319c2.27957,2.86845 4.56483,3.63211 6.79311,2.27197c3.98544,-2.43534 6.57085,-11.0654 4.61232,-15.3928l-1.25756,-1.87114c-0.169068,-0.254552 -0.100681,-0.598386 0.153871,-0.769353c0.254552,-0.167168 0.598386,-0.0987812 0.767454,0.153871l1.30125,1.95283c2.22448,4.89537 -0.556594,14.1561 -5.00175,16.8726c-0.657275,0.400824 -1.5938,0.799748 -2.72028,0.799748" style="fill:#1a1a18;fill-rule:nonzero;"/>

    <path d="M43.8804,41.9063c-2.40114,0 -4.43945,0.714264 -5.98196,2.1105c-2.44293,2.21498 -3.57132,6.01805 -3.17809,10.7121c0.243154,2.90075 0.951719,4.7016 2.16179,5.50705c1.77236,1.17968 4.61802,0.258351 7.91579,-0.807346c0.811145,-0.26025 1.64129,-0.529999 2.48663,-0.776952l0.00949819,-0.020896c1.60519,-4.09182 4.59332,-11.7094 0.845339,-14.6367l-3.19519,-1.91294c-0.0645877,-0.0379928 -0.115878,-0.0873834 -0.15767,-0.142473c-0.307741,-0.020896 -0.609784,-0.0322938 -0.906127,-0.0322938M38.9698,61.8981c-0.99921,0 -1.90534,-0.21086 -2.70129,-0.738959c-1.51021,-1.00681 -2.37835,-3.07931 -2.65189,-6.33719c-0.42172,-5.04544 0.833941,-9.17335 3.53903,-11.6258c2.32706,-2.1086 5.60583,-2.84566 9.4735,-2.13329c0.300143,0.0550895 0.499605,0.343834 0.444515,0.643977c-0.020896,0.108279 -0.0702866,0.203261 -0.140573,0.277347l1.83315,1.09989c4.45275,3.47254 1.38864,11.2839 -0.442616,15.9513l-0.207061,0.529999l-0.26405,0.0759855c-0.923224,0.26215 -1.83125,0.556594 -2.71458,0.84154c-2.29096,0.740859 -4.37867,1.41523 -6.16812,1.41523" style="fill:#1a1a18;fill-rule:nonzero;"/>

    <path d="M63.671,46.1721c-1.39623,0 -2.80197,-0.478709 -4.14881,-1.43233c-3.89426,-2.76207 -3.31677,-13.1056 0.0132975,-18.0314c1.85975,-2.75258 4.34067,-3.41935 6.8083,-1.82935c0.258351,0.165269 0.332437,0.507203 0.167168,0.763655c-0.167168,0.258351 -0.509103,0.330537 -0.765554,0.167168c-1.97372,-1.26896 -3.75368,-0.759855 -5.29239,1.51781c-3.01663,4.46225 -3.6967,14.0934 -0.290645,16.5079c2.93684,2.0839 5.43107,1.13408 7.00777,-0.0284946c4.09942,-3.02612 6.27261,-10.1954 5.11193,-13.7249c-0.488207,-1.48172 -1.49122,-2.23397 -2.98433,-2.23397l-0.229856,0l-1.46272,-1.46272c-0.216559,-0.216559 -0.216559,-0.566092 0,-0.782651c0.216559,-0.216559 0.566092,-0.216559 0.782651,0l1.14358,1.14358c1.84645,0.0816844 3.19139,1.13598 3.80118,2.99003c1.43043,4.34257 -1.34874,11.8936 -5.50515,14.9615c-1.33165,0.982113 -2.73928,1.47412 -4.15641,1.47412" style="fill:#1a1a18;fill-rule:nonzero;"/>

    <path d="M57.8593,74.2247c-1.5824,0 -3.52193,-0.615483 -5.40637,-2.80197c-3.23508,-3.75179 -1.84835,-10.9989 1.47602,-15.4156c2.6234,-3.48394 5.93827,-4.64462 9.09547,-3.19329c0.277347,0.127276 0.398924,0.455913 0.271648,0.73326c-0.129175,0.279247 -0.457813,0.398924 -0.73516,0.271648c-3.75368,-1.73057 -6.66963,1.42093 -7.74672,2.85516c-3.00333,3.98734 -4.36727,10.7292 -1.52351,14.025c1.71727,1.99462 3.653,2.76017 5.74071,2.28337c3.71379,-0.847239 7.03246,-5.44816 8.09626,-9.40511c0.710465,-2.6443 0.416021,-4.81178 -0.809246,-5.95347l-0.0835841,-0.0968815l-1.30125,-1.95283c-0.169068,-0.254552 -0.100681,-0.598386 0.153871,-0.767454c0.254552,-0.167168 0.598386,-0.0987812 0.767454,0.153871l1.26706,1.89964c1.49312,1.43803 1.88634,3.98354 1.0752,7.00397c-1.13408,4.2153 -4.64462,9.22274 -8.9188,10.1973c-0.425519,0.0987812 -0.904228,0.163369 -1.41903,0.163369" style="fill:#1a1a18;fill-rule:nonzero;"/>

    <path d="M82.437,64.5475c-2.21308,0 -3.85247,1.0391 -4.92766,2.05351c-2.77347,2.6177 -4.12791,7.26612 -3.21989,11.054c0.450214,1.87874 1.64509,4.31028 4.77759,5.2335c4.62562,1.36204 7.8626,-3.42505 9.76224,-7.68024c1.28226,-2.87605 2.13329,-6.78551 0.972615,-8.57497c-0.459712,-0.710465 -1.20817,-1.0543 -2.28906,-1.0543l-0.169068,0l-1.88254,-1.25566c0.00759855,0.0702866 0,0.140573 -0.020896,0.212759c-0.089283,0.292544 -0.398924,0.455913 -0.689569,0.36853c-0.830142,-0.248853 -1.60139,-0.357132 -2.31376,-0.357132M80.6874,84.2373c-0.632579,0 -1.27846,-0.0949819 -1.93193,-0.286845c-2.84186,-0.835841 -4.80988,-2.98053 -5.54314,-6.03705c-0.993511,-4.14881 0.493906,-9.24554 3.53713,-12.1178c2.29476,-2.16749 5.2297,-2.86275 8.26723,-1.96613c-0.0265949,-0.136774 0,-0.284946 0.0835841,-0.412221c0.169068,-0.254552 0.512902,-0.321039 0.767454,-0.153871l1.81605,1.21197c1.37724,0.0398924 2.40304,0.562293 3.04702,1.5539c1.48932,2.29666 0.450214,6.62214 -0.89093,9.63117c-2.52462,5.65522 -5.65902,8.57687 -9.15246,8.57687" style="fill:#1a1a18;fill-rule:nonzero;"/>

    <path d="M96.7283,22.6379c-0.883332,0 -1.72107,0.302042 -2.50182,0.904228c-3.03182,2.34035 -4.68641,8.9416 -3.54093,14.1295c0.414121,1.87684 1.5843,5.13282 4.75479,5.85089c4.13931,0.934622 6.99637,0.376128 8.48948,-1.66408c2.87035,-3.92275 0.254552,-12.5699 -2.46763,-17.3361l-2.37455,-0.592687c-0.296344,-0.0740859 -0.476809,-0.376128 -0.402723,-0.672472c0.0113978,-0.047491 0.0303942,-0.0930823 0.0531899,-0.134874c-0.693368,-0.322938 -1.36394,-0.484408 -2.00982,-0.484408M98.9642,45.0688c-1.13218,0 -2.38785,-0.15577 -3.76888,-0.467311c-2.79057,-0.632579 -4.77759,-3.00713 -5.59063,-6.69053c-1.24806,-5.65142 0.558494,-12.6326 3.94555,-15.2446c1.76096,-1.35824 3.80877,-1.50071 5.92497,-0.41792c0.256451,0.132975 0.36663,0.438816 0.26025,0.700966l2.44863,0.611683l0.117778,0.201362c2.99763,5.11952 5.7616,14.3214 2.52082,18.7494c-1.24616,1.70398 -3.20849,2.55691 -5.85848,2.55691" style="fill:#1a1a18;fill-rule:nonzero;"/>

    <path d="M110.933,68.9104c-1.18537,0 -2.37835,-0.379928 -3.53903,-1.13788c-4.76049,-3.11161 -5.43676,-9.62357 -3.33576,-13.8731c1.87874,-3.79738 5.49375,-5.18221 9.65966,-3.70619c0.288745,0.100681 0.440716,0.41792 0.338136,0.704766c-0.10258,0.288745 -0.41982,0.438816 -0.706665,0.338136c-5.17461,-1.82935 -7.52827,1.5957 -8.29762,3.1534c-1.90154,3.84297 -1.17018,9.76414 2.94824,12.4559c1.74007,1.13788 3.48394,1.26516 5.18221,0.378028c2.6481,-1.38294 4.7244,-5.08723 4.82888,-8.61676c0.0379928,-1.29175 -0.191863,-3.63401 -2.15989,-4.81558l-0.10638,-0.0835841l-1.30125,-1.30125c-0.216559,-0.216559 -0.216559,-0.566092 0,-0.782651c0.216559,-0.214659 0.566092,-0.216559 0.782651,0l1.25376,1.25376c1.77996,1.09989 2.71458,3.142 2.6386,5.7616c-0.117778,3.89996 -2.44863,8.01267 -5.42347,9.56468c-0.902328,0.47111 -1.82935,0.706665 -2.76207,0.706665" style="fill:#1a1a18;fill-rule:nonzero;"/>

    <path d="M130.978,26.1319c-1.5957,0 -3.31107,-0.573691 -5.04544,-1.98512c-4.53444,-3.691 -4.48884,-11.225 -1.5995,-15.9475c2.42584,-3.96644 6.25361,-5.28479 10.2409,-3.52763c0.279247,0.123476 0.406523,0.448315 0.283046,0.729461c-0.123476,0.279247 -0.452114,0.406523 -0.729461,0.283046c-4.94856,-2.17888 -7.83791,1.43613 -8.85041,3.09261c-2.6443,4.32358 -2.73168,11.187 1.35444,14.5113c3.23128,2.6291 6.86149,2.24537 9.71095,-1.0315c3.24078,-3.72709 4.40146,-10.1555 0.883332,-13.4209l-1.31455,-1.31645c-0.216559,-0.214659 -0.216559,-0.566092 0,-0.782651c0.216559,-0.216559 0.566092,-0.214659 0.782651,0l1.29935,1.30125c3.96644,3.6815 2.75827,10.8355 -0.816844,14.9464c-1.54061,1.77236 -3.72899,3.1477 -6.19852,3.1477" style="fill:#1a1a18;fill-rule:nonzero;"/>

    <path d="M139.717,85.317c-1.94713,0 -3.90566,-1.35064 -5.83759,-4.03103c-2.34985,-3.25788 -1.47602,-8.63575 0.431218,-12.5205c1.75337,-3.56752 4.183,-5.74261 6.49866,-5.81859c1.17588,-0.0455913 2.91215,0.467311 4.42996,3.10401c0.151971,0.26405 0.0607884,0.604085 -0.205161,0.756056c-0.26405,0.151971 -0.602185,0.0626881 -0.756056,-0.203261c-0.99731,-1.73437 -2.16749,-2.59681 -3.43265,-2.55121c-1.87114,0.0626881 -3.99494,2.05541 -5.54124,5.20121c-1.76096,3.58842 -2.6082,8.49898 -0.528099,11.3845c2.00412,2.77917 3.94555,3.94745 5.7616,3.46304c3.93605,-1.0391 6.91468,-9.57608 7.52827,-14.2017l-3.55422,-1.77616c-0.273548,-0.136774 -0.385627,-0.469211 -0.248853,-0.742759c0.136774,-0.273548 0.467311,-0.385627 0.742759,-0.246953l4.24949,2.1238l-0.041792,0.381827c-0.383727,3.51433 -3.19139,14.158 -8.3926,15.5314c-0.36663,0.0968815 -0.73516,0.146272 -1.10369,0.146272" style="fill:#1a1a18;fill-rule:nonzero;"/>

    <path d="M64.7436,57.1228c-0.271648,0 -0.509103,-0.201362 -0.547096,-0.478709l-0.144372,-1.01631c-0.484408,-3.40415 -1.0353,-7.26422 0.176666,-10.3226c0.112079,-0.283046 0.435017,-0.42172 0.719963,-0.309641c0.283046,0.112079 0.423619,0.435017 0.309641,0.718063c-1.10369,2.78487 -0.57559,6.48916 -0.110179,9.75844l0.144372,1.02201c0.041792,0.302042 -0.170967,0.581289 -0.47301,0.623081c-0.0265949,0.00379928 -0.0512902,0.00569891 -0.0759855,0.00569891" style="fill:#1a1a18;fill-rule:nonzero;"/>

    <path d="M64.008,99.526c0,1.24806 -0.0721862,2.71648 -0.150071,4.27609c-0.224157,4.55533 -0.480608,9.72045 0.858636,12.9023c0.115878,0.271648 0.381827,0.448315 0.678171,0.448315c0.100681,0 0.197562,-0.0189964 0.284946,-0.0569891c0.374229,-0.15767 0.550895,-0.590787 0.393225,-0.965016c-1.20817,-2.87035 -0.961217,-7.8569 -0.744658,-12.2603c0.0778852,-1.5729 0.151971,-3.05842 0.151971,-4.34447c0,-4.7377 -0.178566,-9.9693 -0.349533,-15.0299l-0.00379928,-0.125376c-0.153871,-4.52494 -0.300143,-8.79912 -0.298243,-12.1881c0,-0.406523 -0.328637,-0.73706 -0.73516,-0.73706c-0.406523,0 -0.73516,0.328637 -0.73516,0.73516c-0.00379928,3.41555 0.142473,7.70873 0.296344,12.2527c0.172867,5.07203 0.353333,10.3188 0.353333,15.0926" style="fill:#1a1a18;fill-rule:nonzero;"/>

    <path d="M139.538,117.804l0.0170967,0c0.398924,0 0.721862,-0.31344 0.73516,-0.712364c0.328637,-10.4993 0.651576,-21.6616 0.651576,-32.5503c0,-0.404623 -0.330537,-0.73706 -0.73706,-0.73706c-0.406523,0 -0.73516,0.332437 -0.73516,0.73706c0,10.8678 -0.321039,22.0149 -0.651576,32.5047c-0.00569891,0.195663 0.0645877,0.383727 0.199462,0.5262c0.134874,0.144372 0.31724,0.224157 0.520501,0.231756" style="fill:#1a1a18;fill-rule:nonzero;"/>

    <path d="M147.164,119.584c-3.94365,0 -9.94461,-0.543297 -15.3434,-1.08089c0.00759855,-0.0455913 0.0132975,-0.089283 0.0132975,-0.134874c0,-0.795948 0.151971,-1.60329 0.31534,-2.48283c0.165269,-0.879532 0.336236,-1.78946 0.336236,-2.72028c0,-13.3924 -0.153871,-27.313 -0.31534,-42.0504l-0.00379928,-0.349533c-0.163369,-14.7488 -0.332437,-29.9972 -0.332437,-44.7707c0,-0.406523 -0.330537,-0.73706 -0.73516,-0.73706c-0.406523,0 -0.73706,0.330537 -0.73706,0.73706c0,14.6481 0.169068,29.9478 0.332437,44.7859c0.163369,14.8495 0.319139,28.8745 0.319139,42.3847c0,0.792149 -0.151971,1.5957 -0.31344,2.47143c-0.165269,0.879532 -0.336236,1.78756 -0.338136,2.71838c-1.27656,-0.129175 -2.55881,-0.26025 -3.83917,-0.393225c-4.84598,-0.501504 -9.85532,-1.01821 -14.1922,-1.33355c0.0645877,-10.5924 0.0379928,-21.7775 0.0151971,-30.7722l-0.00189964,-0.744658c-0.0132975,-5.36268 -0.0265949,-10.752 -0.0265949,-16.183c0,-0.406523 -0.328637,-0.73516 -0.73516,-0.73516c-0.406523,0 -0.73706,0.328637 -0.73706,0.73516c0,5.20881 0.0132975,10.3834 0.0265949,15.5314l0.00189964,1.39813c0.0284946,10.9628 0.0455913,20.8447 -0.0132975,30.6735c-2.101,-0.132975 -3.77838,-0.199462 -5.12712,-0.199462c-2.23018,0 -4.26659,0.0322938 -6.18332,0.0854837c0.239354,-0.121577 0.408422,-0.364731 0.408422,-0.651576c0,-11.8423 -0.330537,-23.7759 -0.647777,-35.3162c-0.321039,-11.6068 -0.653476,-23.6068 -0.653476,-35.5897c0,-0.406523 -0.330537,-0.73706 -0.73516,-0.73706c-0.406523,0 -0.73706,0.330537 -0.73706,0.73706c0,11.9259 0.330537,23.9126 0.649676,35.5042l0.00379928,0.125376c0.319139,11.5441 0.647777,23.4814 0.647777,35.2763c0,0.300143 0.180466,0.554694 0.436917,0.670572c-4.67691,0.142473 -8.59016,0.408422 -12.4141,0.674372c-1.40003,0.0968815 -2.78677,0.193763 -4.1906,0.279247c0.0493906,-0.0968815 0.0759855,-0.205161 0.0759855,-0.321039l0,-33.8288c0,-0.406523 -0.330537,-0.73706 -0.73516,-0.73706c-0.406523,0 -0.73706,0.330537 -0.73706,0.73706l0,33.8288c0,0.146272 0.0436917,0.283046 0.119677,0.398924c-3.46874,0.199462 -6.39418,0.286845 -9.41271,0.286845c-2.94634,0 -5.94017,-0.0854837 -9.15246,-0.265949c-0.744658,-0.041792 -1.50071,-0.10448 -2.23207,-0.167168l-0.558494,-0.0455913c-0.790249,-4.09182 -0.482508,-9.27023 -0.233655,-13.4361c0.0512902,-0.856737 0.100681,-1.68118 0.138674,-2.45813c0.454014,-9.18475 0.685769,-18.5709 0.685769,-27.9c0,-0.406523 -0.330537,-0.73516 -0.73706,-0.73516c-0.406523,0 -0.73516,0.328637 -0.73516,0.73516c0,9.29113 -0.231756,18.6525 -0.68387,27.8259c-0.0379928,0.775052 -0.0873834,1.5938 -0.138674,2.44483c-0.243154,4.09372 -0.547096,9.16765 0.193763,13.4038c-1.77806,-0.15957 -3.6492,-0.341935 -5.56594,-0.547096c-2.94634,-0.31344 -5.96296,-0.617382 -9.04798,-0.816844c0.00379928,-0.00189964 0.00759855,0 0.0113978,-0.00189964c0.370429,-0.163369 0.539497,-0.600286 0.378028,-0.972615c-1.78566,-4.05193 -1.43803,-10.4518 -1.12839,-16.0956c0.100681,-1.84645 0.207061,-3.75748 0.214659,-5.41967c0.0246953,-5.43676 -0.233655,-10.9666 -0.484408,-16.354c-0.241254,-5.15562 -0.492006,-10.4879 -0.492006,-15.8278c0,-0.404623 -0.328637,-0.73516 -0.73516,-0.73516c-0.406523,0 -0.73706,0.330537 -0.73706,0.73516c0,5.37598 0.250752,10.7254 0.493906,15.8962c0.250752,5.33608 0.507203,10.8526 0.482508,16.278c-0.00759855,1.5995 -0.10638,3.41555 -0.212759,5.35128c-0.31724,5.80909 -0.676271,12.3913 1.25186,16.7681c0.068387,0.15577 0.193763,0.26405 0.340035,0.340035c-1.69258,-0.0987812 -3.40035,-0.172867 -5.14232,-0.172867c-1.31835,0 -2.6196,0.0341935 -3.86956,0.10258c-0.41982,0.0227957 -0.898529,0.0341935 -1.42093,0.0341935c-1.11889,0 -2.46573,-0.047491 -4.35587,-0.15767c-2.36695,-7.10655 -1.39433,-16.5155 -0.537598,-24.8207c0.334336,-3.22749 0.649676,-6.2745 0.780751,-9.14676c0.461612,-10.1118 0.303942,-20.5389 0.151971,-30.6222c-0.0740859,-4.99035 -0.151971,-10.1536 -0.151971,-15.2199c0,-0.404623 -0.328637,-0.73516 -0.73516,-0.73516c-0.406523,0 -0.73706,0.330537 -0.73706,0.73516c0,5.03214 0.0778852,10.1954 0.151971,15.1914l0.00189964,0.0493906c0.150071,10.0681 0.305842,20.4781 -0.151971,30.5348c-0.127276,2.80956 -0.440716,5.84519 -0.775052,9.06127c-0.849138,8.23303 -1.81036,17.5489 0.427419,24.8777l-1.13788,-0.0721862c-2.83806,-0.182365 -6.05415,-0.391325 -8.9454,-0.391325c-0.856737,0 -1.66218,0.0189964 -2.40114,0.0550895c0.0151971,-4.51924 0.151971,-8.95109 0.31724,-13.875c0.15957,-4.78139 0.324838,-9.72045 0.324838,-14.6899c0,-0.404623 -0.328637,-0.73516 -0.73516,-0.73516c-0.406523,0 -0.73706,0.330537 -0.73706,0.73516c0,4.96565 -0.165269,9.89521 -0.324838,14.6614c-0.167168,4.96755 -0.305842,9.4545 -0.31724,14.006c-2.22258,0.21086 -3.86956,0.623081 -5.02834,1.26516c-0.170967,0.0930823 -0.296344,0.248853 -0.351433,0.436917c-0.0550895,0.189964 -0.0322938,0.389426 0.0626881,0.562293c0.189964,0.341935 0.655375,0.476809 1.00111,0.286845c1.51401,-0.83774 4.16591,-1.24426 8.10956,-1.24426c2.83806,0 5.93257,0.199462 8.9321,0.395125l1.87114,0.117778c0.216559,0.182365 0.490107,0.20896 0.693368,0.129175c0.0569891,-0.020896 0.10448,-0.0493906 0.146272,-0.0778852c1.31455,0.0759855 2.98813,0.15957 4.43376,0.15957c0.566092,0 1.0638,-0.0113978 1.51781,-0.0360931c1.21957,-0.0664873 2.48853,-0.100681 3.77268,-0.100681c5.07203,0 9.9503,0.518601 14.669,1.01821c2.17699,0.231756 4.15261,0.423619 6.03705,0.586988c0.112079,0.450214 0.218458,0.858636 0.353333,1.24996c0.129175,0.374229 0.552795,0.590787 0.934622,0.457813c0.383727,-0.132975 0.588888,-0.550895 0.457813,-0.936522c-0.068387,-0.197562 -0.121577,-0.408422 -0.176666,-0.619282l-0.00759855,-0.0303942l0.511003,0.041792c0.607884,0.0512902 1.21767,0.10258 1.83125,0.136774c3.24458,0.182365 6.26691,0.267849 9.24174,0.267849c5.62293,0 10.1517,-0.31344 14.9748,-0.645877c5.48426,-0.381827 11.1566,-0.776952 19.1218,-0.776952c1.34684,0 3.02232,0.0664873 5.11763,0.201362l-0.00569891,1.00871c-0.00189964,0.406523 0.326738,0.738959 0.73706,0.742759c0.402723,0 0.73326,-0.328637 0.73516,-0.731361l0.00569891,-0.921324c4.34067,0.319139 9.49439,0.851038 14.0497,1.32215c7.75242,0.801647 15.7689,1.62989 20.7915,1.62989c0.406523,0 0.73706,-0.328637 0.73706,-0.73516c0,-0.406523 -0.330537,-0.73706 -0.73706,-0.73706" style="fill:#1a1a18;fill-rule:nonzero;"/>
  </g>
</svg>